<svg width="1022" height="591" viewBox="0 0 1022 591" fill="none" xmlns="http://www.w3.org/2000/svg">
<g clip-path="url(#clip0_4:143)">
<path d="M798.93 624.993L812.133 620.866C813.194 620.159 814.372 619.687 815.434 618.744L794.921 625.348C796.336 625.229 797.633 625.229 798.93 624.993ZM789.616 624.993L819.441 615.324C820.03 614.852 820.383 614.263 820.973 613.792L787.612 624.404C788.319 624.757 789.027 624.875 789.616 624.993ZM784.43 623.696L823.449 611.197C823.921 610.844 824.039 610.372 824.51 609.9L783.368 622.989C783.723 623.46 784.076 623.46 784.43 623.696ZM781.364 621.692L826.16 607.306C826.396 606.953 826.632 606.481 826.868 606.126L780.657 620.984C780.775 621.337 781.129 621.574 781.364 621.692ZM779.125 619.45L827.929 603.885C828.165 603.531 828.165 603.178 828.401 602.706L778.536 618.742C778.889 618.979 779.007 619.333 779.125 619.45ZM777.71 617.093L829.579 600.585C829.579 600.231 829.815 599.877 829.815 599.405L777.238 616.266C777.357 616.503 777.475 616.857 777.71 617.093ZM776.413 614.498L830.286 597.165C830.286 596.811 830.404 596.458 830.522 595.986L776.059 613.319C776.178 613.908 776.296 614.145 776.413 614.498ZM775.471 611.905L830.994 594.1C830.994 593.747 831.111 593.392 831.111 593.038L775.117 611.079C775.234 611.197 775.353 611.551 775.471 611.905ZM774.999 608.721C775.117 608.839 774.881 608.956 774.999 609.074L831.466 591.033C831.466 590.68 831.583 590.326 831.583 589.972L775.352 607.895C775.234 608.131 775.117 608.367 774.999 608.721ZM777.946 604.712C777.828 604.829 777.71 605.066 777.474 605.066L831.582 587.733C831.582 587.378 831.464 587.143 831.582 586.79L778.888 603.77C778.417 604.122 778.182 604.476 777.946 604.712ZM780.539 601.292L831.111 585.138C831.111 584.784 830.994 584.549 830.876 584.195L781.011 600.231C781.011 600.585 780.775 600.821 780.539 601.292ZM782.19 597.755L830.877 582.19C830.759 581.836 830.759 581.6 830.642 581.247L782.662 596.693C782.308 597.165 782.308 597.519 782.19 597.755ZM783.015 594.571L830.169 579.595C830.051 579.241 829.933 579.123 829.933 578.652L783.37 593.628C783.133 593.982 783.015 594.217 783.015 594.571ZM783.251 591.505L829.107 576.884C828.99 576.531 828.872 576.412 828.754 576.059L783.133 590.562C783.251 590.916 783.251 591.27 783.251 591.505ZM783.015 588.558L827.576 574.29C827.458 573.937 827.341 573.818 827.222 573.465L782.898 587.614C783.015 587.968 783.015 588.44 783.015 588.558ZM782.426 585.846L825.925 571.814C825.807 571.461 825.453 571.225 825.335 571.107L781.954 585.021C782.19 585.374 782.308 585.609 782.426 585.846ZM823.214 568.866L780.894 582.307C781.011 582.661 781.129 582.779 781.248 583.133L823.922 569.454C823.921 569.338 823.568 569.102 823.214 568.866ZM820.738 566.743L779.478 579.95C779.596 580.304 779.95 580.539 780.067 580.657L821.68 567.333C821.327 567.333 820.974 566.98 820.738 566.743ZM817.438 564.856L778.064 577.355C778.182 577.709 778.3 577.827 778.419 578.18L818.617 565.21C818.145 565.211 817.908 564.975 817.438 564.856ZM813.312 563.324C813.194 563.442 813.076 563.206 812.959 563.324L778.183 574.408C778.066 574.643 778.066 575.115 778.066 575.469L814.845 563.678C814.254 563.678 813.783 563.442 813.312 563.324ZM804.47 562.971L781.954 570.163C781.247 570.753 780.422 571.225 779.714 571.813L808.242 562.734C807.064 562.853 805.649 562.853 804.47 562.971Z" fill="#E6E6E6"/>
<path d="M865.652 425.012C867.301 429.964 865.416 435.27 862.94 439.869C856.22 452.486 845.376 462.862 832.408 468.876C825.218 472.296 817.437 474.3 810.011 477.366C788.438 486.327 770.873 504.25 762.504 526.064C764.98 510.971 757.081 495.996 747.414 484.087C737.865 472.178 726.312 461.447 719.476 447.769C713.581 435.978 713.464 418.527 725.371 412.866C734.095 408.739 745.058 413.338 754.017 409.564C757.201 408.15 760.03 405.32 759.911 401.9C759.439 393.174 742.228 393.764 741.757 385.039C741.285 375.016 767.692 377.964 764.273 368.413C762.859 364.404 757.201 363.225 755.314 359.452C753.31 355.679 753.428 350.373 756.846 347.661C761.208 344.123 767.81 346.953 773.35 345.656C779.598 344.241 783.606 337.874 784.903 331.507C786.2 325.14 785.493 318.654 786.435 312.287C788.675 296.604 801.525 283.045 816.967 279.743C832.409 276.441 849.621 283.752 857.99 297.194C861.409 302.736 863.295 310.164 859.64 315.47C856.457 319.95 849.621 322.899 850.209 328.323C850.916 335.752 864.709 336.459 864.944 343.888C865.18 352.614 847.261 352.614 847.733 361.339C847.969 365.23 852.094 367.47 854.57 370.536C859.286 376.195 857.4 385.982 850.916 389.519C848.323 390.934 845.258 391.524 843.254 393.528C838.067 398.598 843.136 407.56 849.266 411.334C855.397 415.107 863.412 418.055 865.652 425.012Z" fill="url(#paint0_linear_4:143)"/>
<path d="M820.385 425.602C824.039 423.597 827.929 421.71 830.876 418.645C836.889 412.041 836.534 402.137 837.006 393.175C837.478 384.214 840.66 373.72 849.266 371.361C856.457 369.356 865.535 373.719 870.839 368.531C872.843 366.644 873.668 363.814 875.083 361.457C881.213 351.198 897.362 352.023 906.322 359.924C915.163 367.824 918.582 380.087 921.529 391.643C922.59 395.887 922.708 401.784 918.582 402.962C914.574 404.024 910.565 399.071 906.794 400.604C903.729 401.784 903.493 406.146 904.672 409.33C905.733 412.395 907.618 415.58 906.911 418.881C905.497 425.013 896.892 425.366 890.761 423.716C884.631 422.065 876.734 420.414 873.197 425.72C877.088 438.101 880.388 453.195 871.665 462.981C861.645 474.183 843.137 473.004 828.166 474.419C800.346 477.014 780.658 498.237 764.98 521.467C764.036 482.553 786.317 444.114 820.385 425.602Z" fill="url(#paint1_linear_4:143)"/>
<path d="M785.491 503.778C785.373 503.778 785.373 503.778 785.255 503.778C784.901 503.66 784.783 503.306 784.901 503.071C799.048 459.796 821.563 429.729 862.705 399.425C870.367 393.765 893.473 384.214 903.493 383.389C903.728 383.389 904.082 383.624 904.082 383.978C904.082 384.333 903.847 384.568 903.493 384.568C893.944 385.393 870.721 394.944 863.412 400.369C822.389 430.555 799.99 460.387 785.963 503.425C785.963 503.543 785.727 503.778 785.491 503.778Z" fill="white"/>
<path d="M807.3 376.903L802.584 363.932C800.934 363.814 799.165 364.05 797.515 364.639L802.584 378.553C802.819 379.378 802.466 380.203 801.641 380.44C800.816 380.675 799.991 380.322 799.755 379.497L794.686 365.819C793.154 366.762 791.857 368.059 790.796 369.474L795.039 381.03C795.275 381.855 794.922 382.68 794.097 382.917C793.272 383.152 792.447 382.799 792.21 381.974L788.909 372.895C787.023 377.611 786.905 383.625 789.027 389.52C789.027 389.638 789.145 389.756 789.145 389.875C788.083 390.464 786.905 391.172 785.961 391.997C783.015 394.119 779.242 397.774 777.945 402.963L779.359 403.317C780.539 398.601 784.075 395.181 786.786 393.294C787.729 392.587 788.673 391.997 789.733 391.407C791.973 396.359 795.627 400.369 799.635 402.491L796.452 393.884C796.216 393.059 796.569 392.233 797.394 391.997C798.219 391.76 799.044 392.115 799.281 392.94L803.407 404.024C805.176 404.496 806.943 404.613 808.712 404.259L803.996 391.288C803.761 390.463 804.114 389.638 804.939 389.401C805.764 389.166 806.589 389.519 806.825 390.344L811.659 403.433C813.191 402.725 814.606 401.664 815.785 400.485L811.423 388.694C811.188 387.869 811.541 387.044 812.366 386.807C813.191 386.572 814.016 386.925 814.252 387.75L818.024 397.891C819.203 396.122 820.264 394.236 821.208 392.231L818.85 385.864C818.615 385.039 818.968 384.214 819.793 383.977C820.618 383.742 821.443 384.095 821.679 384.92L822.976 388.34C825.334 382.68 826.867 377.138 828.871 375.369C825.57 374.662 820.973 371.596 815.903 368.765L817.553 373.128C817.789 373.953 817.436 374.778 816.611 375.015C815.786 375.25 814.961 374.897 814.724 374.072L812.013 366.643C810.009 365.7 808.005 364.993 806.001 364.521L810.126 375.959C810.362 376.784 810.009 377.609 809.184 377.846C808.479 378.082 807.653 377.728 807.3 376.903Z" fill="white"/>
<path d="M574.126 521.346H442.567V667.677H574.126V521.346Z" fill="#D6D7D8"/>
<path d="M797.279 241.538H219.412V615.795H797.279V241.538Z" fill="url(#paint2_linear_4:143)"/>
<path d="M787.142 250.854H229.55V559.079H787.142V250.854Z" fill="white"/>
<path d="M480.039 588.013L487.624 595.6L495.209 588.013L487.624 580.426L480.039 588.013Z" fill="#A1C3FC"/>
<path d="M500.731 587.997L508.316 595.584L515.901 587.997L508.316 580.41L500.731 587.997Z" fill="white"/>
<path d="M521.422 588.029L529.007 595.616L536.592 588.029L529.007 580.443L521.422 588.029Z" fill="#1D72D8"/>
<path d="M785.608 197.792C785.608 198.028 785.608 198.264 785.608 198.5C785.608 208.287 793.506 216.187 803.291 216.187C813.077 216.187 820.974 208.288 820.974 198.5C820.974 198.264 820.974 198.028 820.974 197.792H785.608Z" fill="#D3E3FE"/>
<path d="M848.912 154.753C848.912 155.107 848.912 155.578 848.912 155.933C848.912 172.086 861.997 185.175 878.147 185.175C894.297 185.175 907.382 172.086 907.382 155.933C907.382 155.578 907.382 155.107 907.382 154.753C907.383 154.753 848.912 154.753 848.912 154.753Z" fill="#A1C3FC"/>
<path d="M107.658 124.096C107.658 124.804 107.658 125.393 107.658 126.101C107.658 153.338 129.82 175.507 157.052 175.507C184.283 175.507 206.445 153.339 206.445 126.101C206.445 125.393 206.445 124.804 206.445 124.096C206.444 124.096 107.658 124.096 107.658 124.096Z" fill="#F4F4F4"/>
<path d="M159.409 124.096C159.409 124.568 159.409 125.039 159.409 125.511C159.409 145.321 175.441 161.357 195.246 161.357C215.05 161.357 231.082 145.321 231.082 125.511C231.082 125.039 231.082 124.568 231.082 124.096H159.409Z" fill="#E7EFFE"/>
<path d="M138.661 596.222C138.426 601.41 141.608 606.126 145.263 609.9C155.165 620.394 168.487 627.588 182.632 629.946C190.53 631.243 198.664 631.243 206.681 632.186C230.022 635.133 251.83 647.868 265.859 666.734C259.376 652.703 263.147 636.077 269.278 621.927C275.408 607.778 283.777 594.335 286.724 579.242C289.318 566.271 284.72 549.174 271.635 546.934C261.968 545.283 252.537 552.711 242.871 551.296C239.452 550.824 235.798 548.819 235.091 545.4C233.204 536.793 250.18 532.783 248.176 524.175C245.936 514.271 221.063 524.175 221.888 514.152C222.242 509.907 227.311 507.313 228.253 503.068C229.196 498.823 227.664 493.754 223.656 492.102C218.468 489.862 212.81 494.342 207.152 494.579C200.668 494.933 195.128 489.744 192.18 483.967C189.232 478.19 188.172 471.586 185.578 465.691C179.213 451.07 163.181 441.283 147.265 442.226C131.351 443.169 116.616 454.842 112.018 470.171C110.132 476.42 110.249 484.202 115.319 488.447C119.563 491.984 126.99 492.927 127.932 498.351C129.229 505.78 116.026 510.143 117.794 517.454C119.798 526.061 137.362 521.227 139.131 529.835C139.956 533.726 136.537 537.027 135.005 540.565C131.941 547.287 136.42 556.248 143.61 558.016C146.439 558.724 149.622 558.37 152.215 559.786C158.581 563.323 156.106 573.346 151.154 578.651C145.971 584.077 139.133 588.911 138.661 596.222Z" fill="url(#paint3_linear_4:143)"/>
<path d="M182.985 584.784C178.859 583.841 174.616 583.015 170.962 580.775C163.299 575.94 161.06 566.154 158.231 557.664C155.402 549.175 149.507 539.741 140.548 539.741C133.003 539.741 125.341 546.463 118.858 542.807C116.382 541.392 114.849 538.915 112.845 537.029C104.24 528.775 88.6789 533.845 82.1957 543.868C75.7125 553.892 75.7125 566.744 75.8302 578.771C75.9479 583.134 77.3625 588.912 81.7249 588.912C85.8509 588.912 88.4446 583.016 92.5706 583.488C95.8716 583.841 97.2861 588.087 97.0496 591.388C96.8142 594.69 95.8705 598.227 97.4038 601.174C100.351 606.834 108.957 604.829 114.38 601.528C119.802 598.226 127.111 594.571 131.944 598.815C131.472 611.904 132.298 627.468 143.379 634.544C156.11 642.68 173.793 636.666 188.647 634.072C216.349 629.119 241.223 644.566 262.56 662.961C252.774 624.993 220.944 593.628 182.985 584.784Z" fill="url(#paint4_linear_4:143)"/>
<path d="M265.505 668.503C256.074 643.859 248.529 618.509 242.753 592.802" stroke="#428DFC" stroke-width="3.32292" stroke-miterlimit="10" stroke-linecap="round"/>
<path d="M255.625 587.194C254.999 584.465 248.627 583.598 241.393 585.257C234.159 586.916 228.802 590.474 229.428 593.203C230.054 595.932 236.425 596.799 243.659 595.14C250.893 593.481 256.25 589.924 255.625 587.194Z" fill="#23286B"/>
<path d="M242.046 589.736C238.863 575.115 236.27 560.494 234.266 545.636" stroke="#428DFC" stroke-width="3.32292" stroke-miterlimit="10" stroke-linecap="round"/>
<path d="M249.104 537.092C248.05 533.942 240.339 533.685 231.88 536.517C223.422 539.348 217.419 544.197 218.473 547.347C219.527 550.497 227.238 550.754 235.697 547.923C244.156 545.091 250.158 540.242 249.104 537.092Z" fill="#23286B"/>
<path d="M233.676 541.746C232.144 529.483 230.965 517.219 230.14 504.957" stroke="#428DFC" stroke-width="3.32292" stroke-miterlimit="10" stroke-linecap="round"/>
<path d="M247.094 500.545C247.059 497.225 239.8 494.61 230.882 494.704C221.964 494.799 214.762 497.567 214.798 500.888C214.833 504.208 222.091 506.823 231.009 506.729C239.928 506.634 247.129 503.866 247.094 500.545Z" fill="#23286B"/>
<path d="M229.903 499.769C229.431 490.454 229.196 481.02 229.078 471.587" stroke="#428DFC" stroke-width="3.32292" stroke-miterlimit="10" stroke-linecap="round"/>
<path d="M250.867 466.528C250.82 462.035 241.071 458.496 229.093 458.623C217.115 458.75 207.443 462.495 207.491 466.988C207.539 471.48 217.287 475.019 229.265 474.892C241.243 474.765 250.915 471.02 250.867 466.528Z" fill="#23286B"/>
<path d="M229.078 465.22C229.196 458.971 229.314 452.721 229.55 446.472" stroke="#428DFC" stroke-width="3.32292" stroke-miterlimit="10" stroke-linecap="round"/>
<path d="M190.649 256.749L181.807 255.687C180.982 255.805 180.157 255.805 179.331 256.041L193.124 257.574C192.181 257.338 191.474 256.984 190.649 256.749ZM196.071 259.225L176.03 256.985C175.558 257.103 175.205 257.34 174.733 257.457L197.131 260.052C196.778 259.696 196.425 259.461 196.071 259.225ZM198.782 261.348L172.612 258.4C172.257 258.518 172.022 258.754 171.669 258.872L199.254 262.056C199.136 261.701 198.9 261.583 198.782 261.348ZM200.079 263.352L170.018 259.933C169.783 260.051 169.546 260.287 169.311 260.405L200.314 263.942C200.315 263.706 200.197 263.47 200.079 263.352ZM200.786 265.238L168.015 261.465C167.779 261.583 167.661 261.82 167.425 262.055L200.905 265.828C200.786 265.592 200.786 265.357 200.786 265.238ZM201.023 267.007L166.247 262.998C166.13 263.234 165.893 263.352 165.775 263.588L201.023 267.597C201.023 267.479 201.023 267.243 201.023 267.007ZM201.023 268.894L164.833 264.767C164.715 265.003 164.597 265.122 164.361 265.357L200.905 269.602C201.023 269.247 201.023 269.13 201.023 268.894ZM200.904 270.662L163.652 266.418C163.535 266.653 163.417 266.772 163.298 267.007L200.903 271.252C200.904 271.134 200.904 270.899 200.904 270.662ZM200.315 272.667C200.315 272.549 200.433 272.549 200.433 272.432L162.592 268.069C162.474 268.305 162.357 268.423 162.238 268.659L199.961 273.021C200.079 272.904 200.197 272.785 200.315 272.667ZM197.604 274.2C197.722 274.2 197.839 274.082 197.958 274.082L161.649 269.955C161.532 270.19 161.532 270.309 161.414 270.545L196.779 274.554C197.132 274.436 197.367 274.318 197.604 274.2ZM195.128 275.497L161.178 271.605C161.06 271.841 161.06 271.96 161.06 272.195L194.539 275.968C194.656 275.851 194.893 275.733 195.128 275.497ZM193.241 277.148L160.588 273.376C160.588 273.611 160.47 273.73 160.47 273.965L192.653 277.62C193.006 277.501 193.124 277.266 193.241 277.148ZM191.945 278.799L160.351 275.144C160.351 275.379 160.351 275.498 160.234 275.733L191.473 279.271C191.709 279.153 191.827 279.034 191.945 278.799ZM191.002 280.568L160.234 277.031C160.234 277.266 160.234 277.385 160.234 277.62L190.765 281.158C190.767 280.921 190.884 280.686 191.002 280.568ZM190.295 282.336L160.353 278.916C160.353 279.152 160.353 279.271 160.353 279.506L190.059 282.926C190.177 282.69 190.295 282.454 190.295 282.336ZM189.94 284.105L160.706 280.803C160.706 281.039 160.823 281.275 160.823 281.393L189.94 284.695C189.94 284.458 189.94 284.223 189.94 284.105ZM161.531 283.28L189.94 286.582C189.94 286.346 189.94 286.227 189.94 285.992L161.294 282.69C161.295 282.808 161.413 283.043 161.531 283.28ZM162.474 285.166L190.177 288.35C190.177 288.114 190.059 287.878 190.059 287.76L162.121 284.576C162.238 284.695 162.357 284.93 162.474 285.166ZM163.889 287.17L190.295 290.236C190.295 290 190.295 289.881 190.295 289.646L163.299 286.581C163.535 286.699 163.652 286.935 163.889 287.17ZM165.893 289.175C166.011 289.175 166.011 289.293 166.128 289.293L189.47 292.005C189.587 291.887 189.705 291.651 189.824 291.415L165.186 288.585C165.421 288.703 165.657 288.94 165.893 289.175ZM170.962 291.652L186.051 293.421C186.641 293.303 187.23 293.185 187.82 293.067L168.722 290.826C169.429 291.062 170.254 291.415 170.962 291.652Z" fill="#B3C9EE"/>
<path d="M814.255 646.925L828.047 647.514C829.344 647.279 830.641 647.16 831.819 646.689L810.246 645.982C811.779 646.217 812.958 646.689 814.255 646.925ZM805.531 643.742L836.888 644.803C837.595 644.568 838.067 644.214 838.892 643.86L803.88 642.563C804.471 643.152 804.941 643.505 805.531 643.742ZM801.17 640.793L842.075 642.208C842.665 641.972 842.9 641.618 843.49 641.383L800.345 639.732C800.58 640.322 800.934 640.44 801.17 640.793ZM798.812 637.845L845.848 639.496C846.201 639.26 846.555 638.906 846.909 638.671L798.459 636.901C798.458 637.373 798.694 637.728 798.812 637.845ZM797.515 635.016L848.795 636.903C849.149 636.667 849.267 636.313 849.62 635.96L797.279 634.073C797.515 634.426 797.515 634.78 797.515 635.016ZM796.926 632.304L851.271 634.308C851.388 633.954 851.743 633.718 851.978 633.365L796.808 631.361C796.926 631.596 796.926 631.95 796.926 632.304ZM796.69 629.356L853.275 631.478C853.393 631.124 853.628 630.889 853.982 630.535L796.808 628.295C796.69 628.884 796.69 629.002 796.69 629.356ZM796.69 626.644L854.925 628.766C855.042 628.412 855.279 628.176 855.397 627.823L796.573 625.701C796.69 625.936 796.69 626.29 796.69 626.644ZM797.398 623.46C797.398 623.695 797.28 623.695 797.28 623.814L856.458 626.054C856.576 625.701 856.812 625.464 856.93 625.111L797.988 622.871C797.751 623.107 797.515 623.224 797.398 623.46ZM801.405 620.748C801.17 620.748 801.051 620.983 800.815 620.983L857.635 622.988C857.753 622.635 857.753 622.398 857.989 622.045L802.702 620.04C802.112 620.277 801.759 620.512 801.405 620.748ZM805.06 618.39L858.108 620.394C858.226 620.04 858.226 619.805 858.226 619.452L805.885 617.565C805.767 617.8 805.413 618.036 805.06 618.39ZM807.772 615.678L858.815 617.565C858.815 617.21 858.933 616.975 858.933 616.622L808.596 614.853C808.125 615.088 808.007 615.442 807.772 615.678ZM809.657 612.966L859.051 614.853C859.051 614.499 859.051 614.263 859.168 613.91L810.364 612.14C809.893 612.376 809.775 612.612 809.657 612.966ZM810.836 610.136L858.933 611.905C858.933 611.552 858.933 611.315 858.815 610.962L811.072 609.075C811.19 609.546 811.071 609.9 810.836 610.136ZM811.779 607.306L858.579 609.075C858.579 608.722 858.579 608.485 858.461 608.132L812.015 606.363C811.897 606.716 811.779 607.071 811.779 607.306ZM812.133 604.476L857.872 606.127C857.872 605.773 857.636 605.419 857.636 605.184L812.133 603.533C812.015 603.886 812.133 604.24 812.133 604.476ZM856.222 602.354L811.78 600.585C811.78 600.939 811.78 601.174 811.897 601.528L856.694 603.178C856.694 603.061 856.457 602.707 856.222 602.354ZM854.571 599.524L811.307 597.874C811.307 598.227 811.542 598.581 811.542 598.817L855.277 600.467C854.925 600.231 854.807 599.877 854.571 599.524ZM852.096 596.575L810.836 594.925C810.836 595.279 810.836 595.515 810.954 595.868L853.156 597.401C852.685 597.283 852.449 596.93 852.096 596.575ZM848.795 593.746C848.559 593.746 848.559 593.628 848.441 593.628L811.896 592.213C811.779 592.448 811.543 592.803 811.425 593.156L849.973 594.571C849.502 594.453 849.149 594.1 848.795 593.746ZM840.66 590.563L817.084 589.62C816.141 589.855 815.315 590.092 814.372 590.327L844.197 591.507C843.019 591.27 841.722 590.798 840.66 590.563Z" fill="#B3C9EE"/>
<path d="M574.717 341.206C593.914 347.842 609.118 360.266 618.387 375.123C639.048 354.468 658.207 323.17 671.136 285.83C697.498 209.693 649.881 124.124 649.881 124.124C649.881 124.124 559.522 161.999 533.161 238.137C520.232 275.478 515.938 311.913 519.407 340.91C535.883 334.951 555.52 334.571 574.717 341.206Z" fill="url(#paint5_linear_4:143)"/>
<path d="M630.831 237.02C635.918 238.778 640.33 241.603 643.907 245.156C642.413 232.379 633.813 220.946 620.83 216.458C602.762 210.213 583.048 219.784 576.796 237.838C572.304 250.81 575.987 264.629 585.117 273.699C584.533 268.694 585.037 263.483 586.796 258.4C593.048 240.347 612.764 230.775 630.831 237.02Z" fill="#EFEFEF"/>
<path d="M642.228 260.455C643.988 255.373 644.493 250.162 643.907 245.156C640.331 241.603 635.917 238.778 630.831 237.02C612.763 230.776 593.047 240.347 586.796 258.4C585.037 263.483 584.532 268.694 585.118 273.7C588.694 277.253 593.108 280.077 598.194 281.835C616.263 288.081 635.978 278.508 642.228 260.455Z" fill="white"/>
<path d="M655.218 290.405L612.891 371.254L645.229 415.849C667.014 366.232 669.437 324.801 655.218 290.405Z" fill="#FF4945"/>
<path d="M546.554 252.844L529.83 342.542L476.823 357.638C490.384 305.18 514.104 271.107 546.554 252.844Z" fill="#FF4945"/>
<path d="M648.054 133.766C647.741 133.83 647.409 133.813 647.086 133.702C646.125 133.37 645.616 132.322 645.948 131.362L665.633 74.5132C665.968 73.5529 667.019 73.0443 667.976 73.3748C668.937 73.7069 669.446 74.7551 669.114 75.7149L649.429 132.564C649.206 133.203 648.67 133.641 648.054 133.766Z" fill="#FF4945"/>
<path d="M587.69 486.81C587.634 486.821 587.575 486.824 587.515 486.818C587.176 486.789 586.926 486.493 586.957 486.155C589.332 458.576 589.98 433.406 589.059 404.545C589.049 404.208 589.314 403.925 589.653 403.912C589.992 403.903 590.275 404.168 590.287 404.505C591.21 433.417 590.56 458.631 588.18 486.259C588.156 486.537 587.952 486.757 587.69 486.81Z" fill="#5BABF2"/>
<path d="M481.979 450.269C481.827 450.3 481.661 450.273 481.52 450.181C481.236 449.995 481.157 449.615 481.343 449.331C496.563 426.137 511.647 405.911 530.251 383.756C530.468 383.493 530.856 383.462 531.117 383.68C531.376 383.898 531.41 384.284 531.191 384.544C512.621 406.663 497.564 426.852 482.37 450.005C482.276 450.146 482.134 450.238 481.979 450.269Z" fill="#5BABF2"/>
<path d="M575.837 501.921L583.384 514.071L595.544 506.53L587.997 494.381L575.837 501.921Z" fill="#FF4945"/>
<path d="M504.97 502.386L496.454 513.879L507.957 522.388L516.473 510.895L504.97 502.386Z" fill="#1B236D"/>
<path d="M483.572 411.806L488.716 420.086L497.003 414.947L491.859 406.667L483.572 411.806Z" fill="#5BABF2"/>
<path d="M515.45 495.962C515.347 495.983 515.235 495.978 515.13 495.941C514.809 495.829 514.639 495.481 514.75 495.161L542.825 414.074C542.937 413.753 543.287 413.585 543.606 413.694C543.927 413.806 544.097 414.154 543.986 414.474L515.911 495.561C515.834 495.774 515.654 495.921 515.45 495.962Z" fill="#5BABF2"/>
<path d="M559.799 472.475C559.728 472.489 559.654 472.492 559.58 472.479C559.245 472.426 559.017 472.111 559.07 471.776L562.459 450.577C562.512 450.243 562.828 450.012 563.163 450.069C563.499 450.122 563.726 450.436 563.673 450.772L560.284 471.971C560.241 472.229 560.042 472.425 559.799 472.475Z" fill="#5BABF2"/>
<path d="M617.582 289.068C610.474 290.508 603.076 290.012 596.187 287.63C585.899 284.073 577.612 276.727 572.855 266.943C568.097 257.161 567.436 246.111 570.995 235.831C575.689 222.273 587.356 212.077 601.442 209.223C608.551 207.782 615.949 208.278 622.837 210.659C644.076 218 655.376 241.237 648.03 262.457C643.335 276.018 631.668 286.213 617.582 289.068ZM603.883 221.246C594.033 223.242 585.877 230.368 582.597 239.843C580.11 247.026 580.572 254.748 583.897 261.585C587.222 268.421 593.013 273.555 600.202 276.041C605.018 277.706 610.185 278.053 615.145 277.048C624.995 275.052 633.151 267.925 636.432 258.45C641.566 243.621 633.668 227.384 618.827 222.255C614.008 220.589 608.842 220.241 603.883 221.246Z" fill="#FF4945"/>
<path d="M589.059 182.08C627.603 195.404 658.58 219.897 678.556 249.588C683.702 184.9 649.882 124.124 649.882 124.124C649.882 124.124 607.757 141.788 572.641 177.227C578.12 178.582 583.599 180.195 589.059 182.08Z" fill="#5BABF2"/>
<path d="M677.076 196.116C669.42 153.1 651.194 120.334 651.194 120.334C651.194 120.334 616.6 134.842 583.977 163.936L677.076 196.116Z" fill="url(#paint6_linear_4:143)"/>
<path d="M331.877 338.403C275.837 349.007 240.035 332.341 202.543 342.789C202.543 342.789 182.827 252.831 165.597 213.759C177.122 196.442 204.04 186.838 223.384 179.334C254.315 167.338 282.698 148.883 306.238 125.475C336.413 158.713 399.418 232.717 399.418 232.717C371.691 256.594 360.525 299.693 331.877 338.403Z" fill="#151A4F"/>
<path d="M468.541 81.4071L277.684 259.417L36.4519 299.551L242.968 107.661L468.541 81.4071Z" fill="#23286B"/>
<path d="M275.591 166.68L247.601 192.789L212.219 198.676L242.508 170.53L275.591 166.68Z" fill="#428DFC"/>
<path d="M24.838 392.668C42.8657 381.519 57.5907 364.726 65.6484 345.277C68.8786 337.482 71.1282 329.241 73.3092 321.272C75.0107 315.046 76.7723 308.61 78.9801 302.463C90.4499 270.543 116.117 241.447 151.393 220.405C184.111 200.912 220.972 189.976 255.933 181.064C256.609 180.891 257.01 180.209 256.841 179.539C256.67 178.866 255.99 178.461 255.316 178.633C220.172 187.592 183.103 198.592 150.11 218.252C114.419 239.54 88.2838 269.149 76.619 301.617C74.3787 307.856 72.6032 314.342 70.8887 320.614C68.7299 328.507 66.4958 336.674 63.326 344.321C52.1188 371.366 27.6782 393.159 -0.452371 401.199C-8.53881 403.512 -14.2292 403.327 -18.3666 400.615C-20.9524 398.92 -22.5889 395.246 -22.2534 391.872C-22.1129 390.467 -21.4983 387.962 -18.9187 386.911C-18.2904 386.653 -17.9662 385.919 -18.2232 385.28C-18.4858 384.636 -19.2162 384.327 -19.856 384.589C-22.644 385.704 -24.4145 388.279 -24.7502 391.636C-25.1769 395.955 -23.1198 400.511 -19.7403 402.724C-13.4486 406.844 -5.32389 405.207 0.238902 403.619C8.85913 401.152 17.1506 397.422 24.838 392.668Z" fill="#428DFC"/>
<path d="M20.4816 376.335C31.5311 369.502 41.7099 360.298 49.7545 352.573C61.0957 341.686 69.634 328.485 75.8533 312.215C76.1038 311.567 75.7775 310.843 75.1312 310.592C74.4783 310.342 73.7566 310.671 73.51 311.319C67.4257 327.234 59.0877 340.136 48.0211 350.76C38.1537 360.229 25.0572 371.943 11.2168 378.571C-0.441866 384.149 -9.29591 379.927 -13.3358 374.615C-16.2122 370.837 -16.6574 366.593 -14.4515 364.055C-13.9942 363.531 -14.0535 362.738 -14.5735 362.285C-15.0991 361.829 -15.8835 361.883 -16.3443 362.413C-19.3511 365.876 -18.9452 371.395 -15.3289 376.143C-10.3582 382.681 0.115197 386.669 12.3013 380.837C15.0657 379.516 17.7988 377.995 20.4816 376.335Z" fill="#428DFC"/>
<path d="M37.9008 408.022C52.0387 399.279 63.6899 386.432 70.8128 371.42C80.5807 350.832 82.6711 330.877 77.0304 312.117C76.8303 311.452 76.1297 311.08 75.4685 311.279C74.7989 311.486 74.4306 312.182 74.6277 312.842C80.0859 330.989 78.0409 350.337 68.5505 370.344C59.7525 388.877 43.8454 404.016 24.9122 411.879C24.2895 412.14 23.9643 412.879 24.2319 413.519C24.4945 414.162 25.2293 414.461 25.8716 414.198C30.0324 412.472 34.0608 410.397 37.9008 408.022Z" fill="#428DFC"/>
<path d="M679.325 451.25L632.086 493.238L664.625 530.25L711.864 488.262L679.325 451.25Z" fill="url(#paint7_linear_4:143)"/>
<path d="M632.086 493.238L671.977 490.752L679.325 451.25L632.086 493.238Z" fill="#EEEEEE"/>
<path d="M432.308 369.438L372.031 388.035L386.442 435.262L446.719 416.665L432.308 369.438Z" fill="url(#paint8_linear_4:143)"/>
<path d="M372.031 388.035L409.376 402.353L432.308 369.438L372.031 388.035Z" fill="#EEEEEE"/>
<path d="M455.43 468.548L399.221 508.589L430.27 552.602L486.479 512.561L455.43 468.548Z" fill="url(#paint9_linear_4:143)"/>
<path d="M399.221 508.589L442.852 510.578L455.43 468.548L399.221 508.589Z" fill="#EEEEEE"/>
<path d="M423.951 466.581C418.326 468.04 412.731 469.141 407.164 469.888C405.74 463.985 404.59 458.344 403.857 453.101C409.406 451.759 415.001 450.657 420.644 449.794C422.03 455.152 423.112 460.764 423.951 466.581Z" fill="#A1C3FC"/>
<path d="M694.4 421.85L684.65 412.1L694.4 402.35L704.15 412.1L694.4 421.85Z" fill="#A1C3FC"/>
<path d="M627.571 427.05L624.795 428.483H628.3L627.571 427.05Z" fill="#A1C3FC"/>
<path d="M615.087 433.496H630.85L629.508 430.858H620.197L615.087 433.496Z" fill="#A1C3FC"/>
<path d="M605.378 438.509H633.4L632.058 435.871H610.488L605.378 438.509Z" fill="#A1C3FC"/>
<path d="M606.692 443.521H635.95L634.608 440.883H605.35L606.692 443.521Z" fill="#A1C3FC"/>
<path d="M609.242 448.534H638.5L637.158 445.896H607.9L609.242 448.534Z" fill="#A1C3FC"/>
<path d="M611.792 453.547H632.832L637.942 450.908H610.45L611.792 453.547Z" fill="#A1C3FC"/>
<path d="M614.342 458.559H623.124L628.234 455.921H613L614.342 458.559Z" fill="#A1C3FC"/>
<path d="M616.169 462.15L618.525 460.933H615.55L616.169 462.15Z" fill="#A1C3FC"/>
<path d="M508.143 363.35L506.401 364.253H508.6L508.143 363.35Z" fill="#A1C3FC"/>
<path d="M500.309 367.409H510.2L509.358 365.748H503.516L500.309 367.409Z" fill="#A1C3FC"/>
<path d="M494.218 370.565H511.8L510.958 368.904H497.424L494.218 370.565Z" fill="#A1C3FC"/>
<path d="M495.042 373.721H513.4L512.558 372.06H494.2L495.042 373.721Z" fill="#A1C3FC"/>
<path d="M496.642 376.877H515L514.158 375.216H495.8L496.642 376.877Z" fill="#A1C3FC"/>
<path d="M498.242 380.033H511.444L514.65 378.372H497.4L498.242 380.033Z" fill="#A1C3FC"/>
<path d="M499.842 383.189H505.352L508.558 381.528H499L499.842 383.189Z" fill="#A1C3FC"/>
<path d="M500.988 385.45L502.467 384.684H500.6L500.988 385.45Z" fill="#A1C3FC"/>
<path d="M622.575 538.85L615.75 532.025L622.575 525.2L629.4 532.025L622.575 538.85Z" fill="#A1C3FC"/>
<path d="M463.965 386.465C460.026 387.564 456.103 388.41 452.197 389.006C451.119 384.871 450.238 380.917 449.655 377.238C453.541 376.223 457.464 375.376 461.423 374.697C462.467 378.449 463.3 382.383 463.965 386.465Z" fill="#E94A47"/>
<path d="M709.22 452.907C705.997 453.098 702.829 453.097 699.715 452.907C699.573 449.536 699.551 446.338 699.715 443.402C702.883 443.266 706.052 443.266 709.22 443.402C709.4 446.471 709.387 449.646 709.22 452.907Z" fill="#E94A47"/>
<path d="M382.524 506.9C379.945 508.457 377.327 509.832 374.671 511.026C373.09 508.303 371.684 505.67 370.545 503.173C373.104 501.685 375.721 500.31 378.398 499.047C379.879 501.504 381.247 504.133 382.524 506.9Z" fill="#E94A47"/>
<path d="M568.943 426.018C566.558 428.502 564.077 430.797 561.5 432.903C558.947 430.367 556.614 427.878 554.615 425.461C556.998 423.06 559.479 420.765 562.058 418.576C564.422 420.848 566.712 423.344 568.943 426.018Z" fill="#A1C3FC"/>
</g>
<defs>
<linearGradient id="paint0_linear_4:143" x1="715.753" y1="402.509" x2="866.459" y2="402.509" gradientUnits="userSpaceOnUse">
<stop stop-color="#B9D3FD"/>
<stop offset="1" stop-color="#89B3F4"/>
</linearGradient>
<linearGradient id="paint1_linear_4:143" x1="764.95" y1="437.672" x2="922.155" y2="437.672" gradientUnits="userSpaceOnUse">
<stop stop-color="#DEEAFE"/>
<stop offset="1" stop-color="#E9F1FE"/>
</linearGradient>
<linearGradient id="paint2_linear_4:143" x1="219.412" y1="428.667" x2="797.279" y2="428.667" gradientUnits="userSpaceOnUse">
<stop stop-color="#EEEEEE"/>
<stop offset="1" stop-color="#D6D7D8"/>
</linearGradient>
<linearGradient id="paint3_linear_4:143" x1="278.323" y1="534.179" x2="131.989" y2="574.396" gradientUnits="userSpaceOnUse">
<stop stop-color="#B9D3FD"/>
<stop offset="1" stop-color="#89B3F4"/>
</linearGradient>
<linearGradient id="paint4_linear_4:143" x1="240.039" y1="581.494" x2="87.3781" y2="623.45" gradientUnits="userSpaceOnUse">
<stop stop-color="#DEEAFE"/>
<stop offset="1" stop-color="#E9F1FE"/>
</linearGradient>
<linearGradient id="paint5_linear_4:143" x1="540.403" y1="217.223" x2="678.352" y2="264.992" gradientUnits="userSpaceOnUse">
<stop stop-color="#92C4FE"/>
<stop offset="1" stop-color="#5BABF2"/>
</linearGradient>
<linearGradient id="paint6_linear_4:143" x1="594.311" y1="134.09" x2="687.393" y2="166.323" gradientUnits="userSpaceOnUse">
<stop stop-color="#FF4945"/>
<stop offset="1" stop-color="#F92424"/>
</linearGradient>
<linearGradient id="paint7_linear_4:143" x1="693.641" y1="513.661" x2="650.458" y2="468.498" gradientUnits="userSpaceOnUse">
<stop offset="0.0898" stop-color="#EEEEEE"/>
<stop offset="0.8178" stop-color="#D6D7D8"/>
</linearGradient>
<linearGradient id="paint8_linear_4:143" x1="419.683" y1="432.218" x2="399.053" y2="373.102" gradientUnits="userSpaceOnUse">
<stop offset="0.0898" stop-color="#EEEEEE"/>
<stop offset="0.8178" stop-color="#D6D7D8"/>
</linearGradient>
<linearGradient id="paint9_linear_4:143" x1="463.725" y1="537.999" x2="422.102" y2="483.852" gradientUnits="userSpaceOnUse">
<stop offset="0.0898" stop-color="#EEEEEE"/>
<stop offset="0.8178" stop-color="#D6D7D8"/>
</linearGradient>
<clipPath id="clip0_4:143">
<rect width="1040" height="780" fill="white" transform="translate(-18)"/>
</clipPath>
</defs>
</svg>
